<?xml version="1.0" encoding="utf-8" standalone="yes"?>
<!DOCTYPE svg PUBLIC "-//W3C//DTD SVG 1.1//EN" "http://www.w3.org/Graphics/SVG/1.1/DTD/svg11.dtd">
<svg xmlns="http://www.w3.org/2000/svg" xmlns:xlink="http://www.w3.org/1999/xlink" xmlns:dc="http://purl.org/dc/elements/1.1/" xmlns:cc="http://web.resource.org/cc/" xmlns:rdf="http://www.w3.org/1999/02/22-rdf-syntax-ns#" xmlns:sodipodi="http://sodipodi.sourceforge.net/DTD/sodipodi-0.dtd" xmlns:inkscape="http://www.inkscape.org/namespaces/inkscape" height="260px" style="zoom: 1;" cursor="default" id="svg_document" width="1360px" baseProfile="full" version="1.1" preserveAspectRatio="xMidYMid meet" viewBox="0 0 1360 260"><!-- Created with macSVG - https://macsvg.org/ - https://github.com/dsward2/macsvg/ --><title id="svg_document_title">Untitled.svg</title><defs id="svg_document_defs"></defs><g id="main_group"><text id="sample_text_element" x="680px" y="130px" font-family="Helvetica" font-size="30px" fill="black" xml:space="preserve" text-anchor="middle" text-rendering="geometricPrecision" transform="" style="outline-style:none;"></text></g><g id="textToPathGroup"><path stroke="none" stroke-width="1" id="textToPath-0" d="M23.599998,144.899994 C24.200001,132.5 27.400002,121.399994 33.400002,111.600006 C39.299999,101.800003 46.900002,94.099998 56.5,88.5 C66,82.900002 76.5,80.099998 88.099998,80.099998 C97.300003,80.099998 104.400002,81.400002 109.399994,84 C114.399994,86.599998 116.300003,90.400002 115.100006,95.400002 C114.300003,98.400002 113,100.400002 111.100006,101.400002 C109.100006,102.400002 106.899994,102.800003 104.099998,102.599998 C101.400002,102.400002 98.400002,102.199997 95,102 C83.800003,101 73.900002,102.099998 65.099998,105.5 C56.400002,108.800003 49.599998,113.800003 44.400002,120.600006 C39.299999,127.399994 36.799999,135.5 36.799999,144.899994 M25.400002,246 C21.799999,246 19,245 17,243 C15,241 14,238.200012 14,234.600006 L14,93.300003 C14,89.699997 15,86.900002 17,84.900002 C19,82.900002 21.799999,81.900002 25.400002,81.900002 C29,81.900002 31.799999,82.900002 33.799999,84.900002 C35.799999,86.900002 36.799999,89.699997 36.799999,93.300003 L36.799999,234.600006 C36.799999,238.200012 35.799999,241 33.799999,243 C31.799999,245 29,246 25.400002,246 " fill="#33393d" transform=""></path><path stroke="none" stroke-width="1" id="textToPath-0" d="M225.800003,247.5 C209.600006,247.5 195.300003,244 182.800003,236.799988 C170.199997,229.699997 160.5,219.899994 153.300003,207.300003 C146.199997,194.699997 142.699997,180.300003 142.699997,164.100006 C142.699997,147.699997 146,133.300003 152.800003,120.800003 C159.5,108.199997 168.699997,98.400002 180.5,91.199997 C192.300003,84 205.899994,80.400002 221.300003,80.400002 C236.5,80.400002 249.700012,83.800003 261.100006,90.800003 C272.399994,97.699997 281.100006,107.199997 287.299988,119.399994 C293.5,131.600006 296.600006,145.5 296.600006,161.100006 C296.600006,164.300003 295.600006,166.800003 293.600006,168.800003 C291.600006,170.699997 289,171.600006 285.799988,171.600006 L158.300003,171.600006 L158.300003,152.399994 L288.200012,152.399994 L275.299988,161.699997 C275.5,150.100006 273.399994,139.699997 269,130.5 C264.600006,121.300003 258.399994,114.100006 250.200012,108.899994 C242.100006,103.699997 232.5,101.099998 221.300003,101.099998 C209.899994,101.099998 199.899994,103.800003 191.300003,109.199997 C182.699997,114.600006 176.100006,122 171.300003,131.600006 C166.600006,141.100006 164.300003,151.899994 164.300003,164.100006 C164.300003,176.300003 166.899994,187.100006 172.199997,196.5 C177.600006,205.899994 184.800003,213.300003 194,218.699997 C203.199997,224.100006 213.800003,226.800003 225.800003,226.800003 C233,226.800003 240.200012,225.600006 247.600006,223.100006 C254.899994,220.5 260.700012,217.399994 265.100006,213.600006 C267.299988,211.800003 269.799988,210.899994 272.600006,210.800003 C275.399994,210.600006 277.799988,211.399994 279.799988,213 C282.399994,215.399994 283.700012,218 283.899994,220.800003 C284,223.600006 282.799988,226 280.399994,228 C273.799988,233.600006 265.399994,238.200012 255.200012,241.899994 C245,245.700012 235.200012,247.5 225.800003,247.5 " fill="#33393d" transform=""></path><path stroke="none" stroke-width="1" id="textToPath-0" d="M407.899994,247.5 C392.5,247.5 378.700012,243.899994 366.5,236.600006 C354.299988,229.199997 344.700012,219.300003 337.600006,206.699997 C330.399994,194.100006 326.899994,179.899994 326.899994,164.100006 C326.899994,148.100006 330.5,133.800003 337.899994,121.199997 C345.200012,108.600006 355.100006,98.699997 367.700012,91.300003 C380.299988,84 394.5,80.400002 410.299988,80.400002 C426.100006,80.400002 440.200012,84 452.799988,91.300003 C465.299988,98.699997 475.100006,108.600006 482.5,121.199997 C489.799988,133.800003 493.5,148.100006 493.700012,164.100006 L484.399994,171.300003 C484.399994,185.699997 481.100006,198.600006 474.399994,210.199997 C467.600006,221.699997 458.600006,230.699997 447.100006,237.399994 C435.5,244.200012 422.5,247.5 407.899994,247.5 M410.299988,226.5 C421.899994,226.5 432.200012,223.800003 441.399994,218.399994 C450.5,213 457.600006,205.600006 463,196.100006 C468.299988,186.5 470.899994,175.899994 470.899994,164.100006 C470.899994,152.100006 468.299988,141.399994 463,132 C457.600006,122.600006 450.5,115.199997 441.399994,109.699997 C432.200012,104.100006 421.899994,101.400002 410.299988,101.400002 C398.899994,101.400002 388.600006,104.100006 379.399994,109.699997 C370.200012,115.199997 362.899994,122.600006 357.5,132 C352.100006,141.399994 349.399994,152.100006 349.399994,164.100006 C349.399994,175.899994 352.100006,186.5 357.5,196.100006 C362.899994,205.600006 370.200012,213 379.399994,218.399994 C388.600006,223.800003 398.899994,226.5 410.299988,226.5 M482,246 C478.600006,246 475.799988,245 473.600006,242.799988 C471.399994,240.700012 470.299988,238 470.299988,234.600006 L470.299988,183.300003 L476,159.600006 L493.700012,164.100006 L493.700012,234.600006 C493.700012,238 492.599976,240.700012 490.400024,242.799988 C488.200012,245 485.399994,246 482,246 " fill="#33393d" transform=""></path><path stroke="none" stroke-width="1" id="textToPath-0" d="M574.099976,246 C566.099976,246 559,243.799988 552.700012,239.399994 C546.299988,235 541.5,228.899994 538,221.100006 C534.400024,213.300003 532.700012,204.300003 532.700012,194.100006 L532.700012,23.099998 C532.700012,19.700001 533.700012,17 535.900024,14.900002 C538,12.700001 540.700012,11.700001 544.099976,11.700001 C547.5,11.700001 550.200012,12.700001 552.400024,14.900002 C554.5,17 555.5,19.700001 555.5,23.099998 L555.5,194.100006 C555.5,202.699997 557.200012,209.699997 560.799988,215.100006 C564.299988,220.5 568.700012,223.199997 574.099976,223.199997 L581.599976,223.199997 C584.599976,223.199997 587,224.199997 588.799988,226.300003 C590.599976,228.5 591.5,231.199997 591.5,234.600006 C591.5,238 590.299988,240.700012 587.799988,242.799988 C585.200012,245 582,246 578,246 " fill="#33393d" transform=""></path><path stroke="none" stroke-width="1" id="textToPath-0" d="M639.799988,246 C636.200012,246 633.400024,245 631.299988,242.799988 C629.099976,240.700012 628.099976,237.899994 628.099976,234.299988 L628.099976,93.599998 C628.099976,90 629.099976,87.199997 631.299988,85.099998 C633.400024,82.900002 636.200012,81.900002 639.799988,81.900002 C643.200012,81.900002 645.900024,82.900002 648.099976,85.099998 C650.200012,87.199997 651.200012,90 651.200012,93.599998 L651.200012,234.299988 C651.200012,237.899994 650.200012,240.700012 648.099976,242.799988 C645.900024,245 643.200012,246 639.799988,246 M639.5,50.699997 C635.099976,50.699997 631.299988,49.099998 628.099976,45.900002 C624.900024,42.699997 623.299988,38.799999 623.299988,34.200001 C623.299988,29.200001 624.900024,25.299999 628.299988,22.299999 C631.599976,19.400002 635.400024,18 639.799988,18 C644,18 647.700012,19.400002 651.099976,22.299999 C654.400024,25.299999 656,29.200001 656,34.200001 C656,38.799999 654.400024,42.699997 651.200012,45.900002 C648,49.099998 644.099976,50.699997 639.5,50.699997 " fill="#33393d" transform=""></path><path stroke="none" stroke-width="1" id="textToPath-0" d="M774.200012,246 C763.599976,246 754.200012,243.5 745.900024,238.5 C737.5,233.5 731,226.699997 726.200012,217.899994 C721.400024,209.199997 719,199.300003 719,188.100006 L719,41.400002 C719,38 720,35.200001 722.200012,33 C724.299988,30.799999 727,29.700001 730.400024,29.700001 C733.799988,29.700001 736.599976,30.799999 738.799988,33 C741,35.200001 742.099976,38 742.099976,41.400002 L742.099976,188.100006 C742.099976,198.300003 745.099976,206.600006 751.099976,213.199997 C757.099976,219.699997 764.799988,222.899994 774.200012,222.899994 L782.299988,222.899994 C785.5,222.899994 788.099976,224 790.099976,226.199997 C792.099976,228.399994 793.099976,231.199997 793.099976,234.600006 C793.099976,238 791.900024,240.700012 789.5,242.799988 C787.099976,245 784.099976,246 780.5,246 M699.5,108 C696.5,108 694,107.100006 692,105.199997 C690,103.199997 689,100.900002 689,98.099998 C689,95.099998 690,92.699997 692,90.800003 C694,88.800003 696.5,87.900002 699.5,87.900002 L776,87.900002 C779,87.900002 781.5,88.800003 783.5,90.800003 C785.5,92.699997 786.5,95.099998 786.5,98.099998 C786.5,100.900002 785.5,103.199997 783.5,105.199997 C781.5,107.100006 779,108 776,108 " fill="#2aabe4" transform=""></path><path stroke="none" stroke-width="1" id="textToPath-0" d="M905,247.5 C888.799988,247.5 874.5,244 862,236.799988 C849.400024,229.699997 839.700012,219.899994 832.599976,207.300003 C825.400024,194.699997 821.900024,180.300003 821.900024,164.100006 C821.900024,147.699997 825.200012,133.300003 832,120.800003 C838.700012,108.199997 847.900024,98.400002 859.700012,91.199997 C871.5,84 885.099976,80.400002 900.5,80.400002 C915.700012,80.400002 928.900024,83.800003 940.299988,90.800003 C951.599976,97.699997 960.299988,107.199997 966.5,119.399994 C972.700012,131.600006 975.799988,145.5 975.799988,161.100006 C975.799988,164.300003 974.799988,166.800003 972.799988,168.800003 C970.799988,170.699997 968.200012,171.600006 965,171.600006 L837.5,171.600006 L837.5,152.399994 L967.400024,152.399994 L954.5,161.699997 C954.700012,150.100006 952.599976,139.699997 948.200012,130.5 C943.799988,121.300003 937.599976,114.100006 929.5,108.899994 C921.299988,103.699997 911.700012,101.099998 900.5,101.099998 C889.099976,101.099998 879.099976,103.800003 870.5,109.199997 C861.900024,114.600006 855.299988,122 850.599976,131.600006 C845.799988,141.100006 843.5,151.899994 843.5,164.100006 C843.5,176.300003 846.099976,187.100006 851.5,196.5 C856.799988,205.899994 864,213.300003 873.200012,218.699997 C882.400024,224.100006 893,226.800003 905,226.800003 C912.200012,226.800003 919.400024,225.600006 926.799988,223.100006 C934.099976,220.5 939.900024,217.399994 944.299988,213.600006 C946.5,211.800003 949,210.899994 951.799988,210.800003 C954.599976,210.600006 957,211.399994 959,213 C961.599976,215.399994 962.900024,218 963.099976,220.800003 C963.200012,223.600006 962,226 959.599976,228 C953,233.600006 944.599976,238.200012 934.400024,241.899994 C924.200012,245.700012 914.400024,247.5 905,247.5 " fill="#2aabe4" transform=""></path><path stroke="none" stroke-width="1" id="textToPath-0" d="M1088,247.5 C1072.199951,247.5 1058.199951,243.899994 1045.900024,236.600006 C1033.5,229.199997 1023.900024,219.300003 1016.800049,206.699997 C1009.599976,194.100006 1006.099976,179.899994 1006.099976,164.100006 C1006.099976,148.100006 1009.5,133.800003 1016.300049,121.199997 C1023.099976,108.600006 1032.400024,98.699997 1044.199951,91.300003 C1056,84 1069.599976,80.400002 1085,80.400002 C1097.199951,80.400002 1108.400024,82.800003 1118.800049,87.599998 C1129.099976,92.400002 1138.099976,99.599998 1145.900024,109.199997 C1148.099976,111.600006 1148.900024,114.100006 1148.300049,116.800003 C1147.699951,119.600006 1146,121.899994 1143.199951,123.899994 C1141,125.5 1138.599976,126.100006 1135.900024,125.600006 C1133.099976,125 1130.800049,123.600006 1128.800049,121.199997 C1117.199951,108 1102.599976,101.400002 1085,101.400002 C1073.800049,101.400002 1064,104.100006 1055.5,109.5 C1046.900024,114.899994 1040.400024,122.300003 1035.699951,131.699997 C1030.900024,141.100006 1028.599976,151.899994 1028.599976,164.100006 C1028.599976,176.100006 1031.099976,186.800003 1036.099976,196.199997 C1041.099976,205.600006 1048.099976,213 1057.099976,218.399994 C1066.099976,223.800003 1076.400024,226.5 1088,226.5 C1095.800049,226.5 1102.900024,225.5 1109.5,223.300003 C1116,221.199997 1121.699951,218 1126.699951,213.600006 C1129.099976,211.600006 1131.599976,210.5 1134.199951,210.300003 C1136.800049,210.100006 1139.199951,210.899994 1141.400024,212.699997 C1143.800049,214.899994 1145.099976,217.399994 1145.5,220.199997 C1145.800049,223 1144.800049,225.399994 1142.599976,227.399994 C1128,240.799988 1109.800049,247.5 1088,247.5 " fill="#2aabe4" transform=""></path><path stroke="none" stroke-width="1" id="textToPath-0" d="M1205,179.100006 C1201.400024,179.100006 1198.599976,178 1196.5,175.800003 C1194.300049,173.600006 1193.300049,170.800003 1193.300049,167.399994 L1193.300049,23.400002 C1193.300049,19.799999 1194.300049,17 1196.5,14.900002 C1198.599976,12.700001 1201.400024,11.700001 1205,11.700001 C1208.400024,11.700001 1211.099976,12.700001 1213.300049,14.900002 C1215.400024,17 1216.400024,19.799999 1216.400024,23.400002 L1216.400024,167.399994 C1216.400024,170.800003 1215.400024,173.600006 1213.300049,175.800003 C1211.099976,178 1208.400024,179.100006 1205,179.100006 M1334,246 C1330.599976,246 1327.800049,244.899994 1325.599976,242.700012 C1323.400024,240.5 1322.300049,237.799988 1322.300049,234.600006 L1322.300049,156.600006 C1322.300049,144.199997 1320,134 1315.300049,126 C1310.5,118 1304.199951,112 1296.099976,108 C1287.900024,104 1278.800049,102 1268.599976,102 C1258.800049,102 1250,103.900002 1242.099976,107.699997 C1234.099976,111.5 1227.900024,116.699997 1223.300049,123.300003 C1218.699951,129.899994 1216.400024,137.399994 1216.400024,145.800003 L1199.900024,145.800003 C1200.300049,133.199997 1203.699951,122 1210.099976,112.100006 C1216.5,102.099998 1225,94.400002 1235.599976,88.699997 C1246.199951,82.900002 1258,80.099998 1271,80.099998 C1285.199951,80.099998 1297.900024,83 1309.099976,89 C1320.300049,94.900002 1329.099976,103.5 1335.699951,114.899994 C1342.199951,126.300003 1345.400024,140.199997 1345.400024,156.600006 L1345.400024,234.600006 C1345.400024,237.799988 1344.300049,240.5 1342.099976,242.700012 C1339.900024,244.899994 1337.199951,246 1334,246 M1205,246 C1201.400024,246 1198.599976,245 1196.5,242.799988 C1194.300049,240.700012 1193.300049,238 1193.300049,234.600006 L1193.300049,93.599998 C1193.300049,90 1194.300049,87.199997 1196.5,85.099998 C1198.599976,82.900002 1201.400024,81.900002 1205,81.900002 C1208.400024,81.900002 1211.099976,82.900002 1213.300049,85.099998 C1215.400024,87.199997 1216.400024,90 1216.400024,93.599998 L1216.400024,234.600006 C1216.400024,238 1215.400024,240.700012 1213.300049,242.799988 C1211.099976,245 1208.400024,246 1205,246 " fill="#2aabe4" transform=""></path></g></svg>